<?xml version="1.0" standalone="no"?>
<!DOCTYPE svg PUBLIC "-//W3C//DTD SVG 20010904//EN"
 "http://www.w3.org/TR/2001/REC-SVG-20010904/DTD/svg10.dtd">
<svg version="1.0" xmlns="http://www.w3.org/2000/svg"
 width="2451.000000pt" height="2451.000000pt" viewBox="0 0 2451.000000 2451.000000"
 preserveAspectRatio="xMidYMid meet">
<metadata>
Created by potrace 1.11, written by Peter Selinger 2001-2013
</metadata>
<g transform="translate(0.000000,2451.000000) scale(0.100000,-0.100000)"
fill="#000000" stroke="none">
<path d="M11788 23735 c-1 -2 -73 -6 -158 -10 -85 -4 -173 -8 -195 -10 -199
-14 -294 -22 -365 -30 -19 -2 -64 -7 -100 -10 -63 -6 -101 -10 -185 -21 -86
-10 -122 -15 -180 -24 -33 -5 -82 -12 -110 -15 -27 -4 -57 -8 -65 -10 -8 -2
-35 -7 -60 -10 -25 -3 -56 -8 -70 -10 -58 -12 -76 -15 -115 -21 -39 -5 -459
-90 -500 -100 -11 -3 -31 -7 -45 -10 -206 -41 -741 -191 -1063 -298 -201 -67
-610 -217 -722 -266 -22 -9 -62 -26 -90 -38 -27 -12 -81 -35 -118 -51 -38 -17
-70 -31 -72 -31 -10 0 -335 -154 -510 -242 -211 -106 -249 -126 -462 -244
-222 -123 -590 -351 -828 -513 -113 -76 -396 -278 -440 -314 -5 -4 -64 -49
-130 -99 -66 -51 -122 -94 -125 -97 -3 -4 -50 -42 -105 -86 -55 -43 -111 -89
-125 -101 -14 -12 -63 -55 -110 -95 -47 -39 -87 -75 -90 -78 -3 -3 -23 -21
-45 -40 -163 -138 -691 -657 -835 -820 -36 -40 -72 -80 -81 -90 -34 -34 -187
-209 -259 -296 -41 -49 -77 -92 -80 -95 -25 -22 -431 -554 -501 -656 -148
-219 -289 -430 -339 -509 -68 -107 -232 -380 -243 -405 -4 -8 -17 -31 -29 -50
-90 -149 -342 -641 -460 -900 -116 -254 -239 -554 -330 -805 -46 -126 -216
-636 -222 -668 -3 -12 -19 -69 -36 -127 -26 -91 -76 -276 -85 -320 -2 -8 -8
-27 -14 -42 -6 -16 -9 -28 -6 -28 2 0 -2 -21 -10 -47 -8 -27 -16 -59 -18 -73
-3 -14 -12 -54 -21 -90 -8 -36 -18 -76 -20 -90 -3 -14 -16 -81 -31 -150 -14
-69 -27 -134 -29 -145 -4 -20 -16 -84 -22 -120 -2 -11 -9 -46 -15 -78 -5 -32
-12 -72 -14 -88 -2 -17 -6 -42 -9 -57 -3 -15 -8 -47 -11 -72 -3 -25 -8 -56
-10 -70 -10 -58 -38 -272 -50 -380 -3 -30 -8 -71 -10 -90 -2 -19 -7 -69 -10
-110 -4 -41 -8 -91 -10 -110 -2 -19 -7 -80 -11 -135 -4 -55 -8 -118 -10 -140
-23 -339 -23 -1138 1 -1415 2 -25 7 -90 10 -145 4 -55 9 -118 11 -140 8 -87
15 -162 19 -195 2 -19 7 -60 10 -90 15 -140 55 -443 60 -459 3 -7 8 -34 10
-60 9 -74 71 -419 100 -546 3 -15 16 -77 19 -95 2 -8 6 -26 9 -40 3 -14 13
-54 21 -90 73 -319 237 -909 276 -995 5 -11 19 -51 31 -90 43 -138 217 -602
263 -707 9 -18 34 -78 57 -133 23 -55 59 -138 80 -183 22 -46 39 -86 39 -89 0
-20 315 -638 414 -811 25 -45 58 -104 73 -130 91 -162 474 -767 524 -826 10
-12 98 -134 127 -176 22 -33 225 -301 276 -366 23 -28 55 -68 71 -89 17 -21
35 -43 40 -49 6 -6 30 -36 55 -66 55 -68 245 -290 300 -350 14 -15 63 -70 110
-121 109 -121 535 -546 669 -669 57 -52 109 -100 115 -105 6 -6 59 -52 118
-103 90 -78 147 -126 330 -277 418 -345 1139 -832 1618 -1093 30 -16 82 -44
115 -63 68 -38 412 -216 435 -225 8 -4 60 -28 115 -54 557 -266 1223 -514
1805 -675 203 -55 411 -109 465 -120 11 -2 59 -13 108 -24 97 -23 460 -96 522
-105 23 -4 52 -8 65 -11 13 -3 42 -7 64 -11 22 -3 43 -7 46 -9 3 -1 32 -6 65
-9 33 -4 67 -9 75 -11 8 -2 38 -6 65 -10 28 -3 61 -8 75 -10 26 -4 53 -7 205
-25 141 -17 166 -19 225 -25 30 -3 75 -7 100 -9 45 -4 179 -15 275 -22 356
-24 1234 -24 1480 1 22 2 76 7 120 10 110 8 191 14 248 20 115 12 154 16 187
20 19 2 60 7 90 10 49 6 295 40 360 50 14 2 45 7 70 10 25 3 52 7 60 10 8 2
35 7 60 10 25 4 79 13 120 21 41 9 89 17 105 20 17 3 50 9 75 15 25 5 54 11
65 13 51 10 177 37 240 52 39 9 77 17 85 19 8 2 42 10 75 19 33 8 75 18 93 21
18 3 51 12 75 20 23 7 53 16 67 19 28 5 221 59 375 105 138 40 466 150 605
201 131 48 430 165 475 185 17 7 98 42 180 78 294 127 655 304 920 452 33 18
83 45 110 60 115 64 211 119 225 130 8 7 36 24 61 38 75 41 415 258 559 357
101 69 475 340 520 377 8 6 71 56 140 110 412 325 854 732 1226 1129 66 70
126 134 134 143 158 165 522 608 716 871 252 341 569 820 694 1048 12 20 34
60 51 87 16 28 34 59 39 70 6 11 14 27 20 35 47 70 312 592 415 815 228 496
469 1148 605 1640 9 33 91 344 95 360 1 6 5 21 8 35 24 93 93 401 111 500 4
23 18 95 31 160 8 42 24 133 30 175 3 22 7 47 10 55 2 8 6 38 10 65 3 28 10
75 15 105 5 30 11 73 14 95 2 22 10 78 16 125 6 47 13 103 16 125 2 22 6 56 9
75 2 19 7 67 10 105 3 39 8 86 10 105 2 19 7 78 10 130 4 52 8 111 10 130 20
201 28 1137 12 1390 -15 219 -25 367 -31 420 -3 19 -7 69 -11 110 -4 41 -8 86
-10 100 -2 14 -7 54 -10 90 -3 36 -7 76 -10 90 -4 26 -10 67 -20 155 -4 28 -8
57 -10 65 -2 8 -7 40 -10 70 -3 30 -8 62 -10 70 -2 8 -7 35 -10 60 -3 25 -8
52 -10 60 -2 8 -7 30 -10 48 -9 56 -14 86 -20 122 -15 91 -79 398 -106 510
-17 69 -32 134 -35 145 -2 11 -18 74 -35 140 -17 66 -32 127 -34 135 -2 8 -22
78 -45 155 -22 77 -47 163 -55 190 -70 250 -301 883 -417 1145 -11 25 -31 70
-45 100 -88 200 -121 270 -232 494 -68 138 -126 253 -130 256 -3 3 -21 34 -38
70 -95 191 -318 566 -512 860 -30 47 -60 92 -66 101 -25 41 -91 135 -102 147
-7 7 -13 17 -13 22 0 5 -6 15 -13 22 -7 7 -28 35 -47 63 -36 51 -94 132 -108
150 -4 6 -37 48 -72 95 -35 47 -68 90 -72 95 -34 44 -303 381 -307 385 -3 3
-33 37 -66 75 -33 39 -62 72 -65 75 -3 3 -20 23 -39 45 -210 248 -621 665
-926 941 -160 144 -411 358 -480 409 -22 17 -44 35 -50 41 -5 6 -73 59 -150
118 -77 59 -153 117 -169 129 -16 12 -74 54 -130 94 -55 40 -107 77 -114 84
-21 17 -491 327 -589 388 -93 57 -351 207 -443 258 -30 16 -73 40 -95 53 -83
48 -583 298 -588 294 -2 -2 -10 2 -17 11 -7 8 -16 15 -21 15 -5 0 -32 11 -61
24 -141 63 -502 218 -518 222 -3 0 -18 6 -35 13 -207 88 -934 336 -970 332 -3
-1 -22 5 -42 13 -21 8 -51 18 -68 22 -16 4 -34 9 -40 11 -46 15 -578 147 -680
168 -71 15 -139 29 -150 32 -11 2 -31 6 -45 8 -14 1 -59 10 -100 18 -41 9 -91
18 -110 21 -40 6 -79 13 -130 22 -19 4 -44 8 -55 9 -35 5 -100 15 -121 19 -12
2 -45 7 -74 11 -29 4 -60 8 -69 10 -9 1 -45 6 -81 10 -36 3 -72 8 -80 10 -8 2
-46 6 -83 10 -37 3 -76 8 -85 10 -9 1 -53 6 -97 9 -44 4 -96 9 -115 11 -42 5
-139 12 -273 20 -54 3 -135 8 -180 11 -91 7 -963 15 -969 9z"/>
</g>
</svg>
