<?xml version="1.0" standalone="no"?>
<!DOCTYPE svg PUBLIC "-//W3C//DTD SVG 20010904//EN"
 "http://www.w3.org/TR/2001/REC-SVG-20010904/DTD/svg10.dtd">
<svg version="1.0" xmlns="http://www.w3.org/2000/svg"
 width="2489.000000pt" height="2489.000000pt" viewBox="0 0 2489.000000 2489.000000"
 preserveAspectRatio="xMidYMid meet">
<metadata>
Created by potrace 1.11, written by Peter Selinger 2001-2013
</metadata>
<g transform="translate(0.000000,2489.000000) scale(0.100000,-0.100000)"
fill="#000000" stroke="none">
<path d="M11978 23925 c-2 -2 -68 -6 -148 -9 -80 -4 -167 -9 -195 -11 -27 -3
-88 -7 -135 -10 -47 -3 -94 -7 -105 -9 -11 -2 -60 -7 -109 -11 -50 -4 -97 -8
-105 -10 -9 -1 -47 -6 -86 -9 -38 -4 -81 -9 -95 -11 -37 -6 -99 -14 -155 -20
-46 -6 -147 -20 -205 -30 -14 -2 -54 -9 -90 -15 -36 -5 -76 -12 -90 -15 -14
-2 -79 -14 -145 -26 -299 -53 -771 -164 -1105 -261 -432 -124 -1052 -348
-1368 -494 -41 -19 -75 -34 -78 -34 -17 0 -533 -251 -729 -355 -95 -50 -478
-268 -523 -297 -15 -10 -34 -21 -42 -25 -8 -4 -46 -27 -85 -51 -38 -25 -86
-54 -105 -67 -340 -215 -831 -569 -1096 -789 -33 -28 -80 -67 -105 -88 -144
-119 -306 -261 -464 -407 -108 -101 -567 -562 -635 -639 -30 -34 -73 -81 -94
-104 -130 -142 -494 -582 -614 -743 -4 -5 -32 -44 -62 -85 -30 -41 -58 -76
-62 -78 -5 -2 -8 -10 -8 -17 0 -7 -3 -15 -7 -17 -22 -9 -293 -410 -450 -663
-144 -233 -220 -364 -365 -630 -50 -92 -272 -538 -322 -646 -31 -67 -180 -415
-215 -504 -5 -11 -14 -33 -20 -49 -41 -102 -189 -505 -197 -536 -2 -8 -19 -62
-39 -120 -71 -210 -227 -770 -271 -975 -3 -11 -9 -42 -15 -70 -6 -27 -15 -68
-20 -90 -4 -22 -11 -50 -13 -63 -3 -13 -7 -31 -10 -40 -3 -9 -7 -33 -10 -52
-3 -19 -12 -68 -20 -108 -9 -40 -18 -89 -21 -110 -2 -20 -9 -62 -15 -92 -6
-30 -13 -71 -16 -90 -3 -19 -9 -60 -14 -90 -5 -30 -12 -75 -15 -100 -3 -25 -8
-56 -10 -70 -4 -27 -12 -85 -20 -152 -3 -24 -8 -54 -10 -68 -2 -14 -7 -55 -10
-92 -3 -37 -7 -75 -9 -85 -2 -10 -7 -58 -10 -108 -4 -49 -9 -101 -11 -115 -3
-24 -12 -145 -21 -290 -24 -399 -24 -1073 1 -1380 2 -25 6 -94 10 -155 3 -60
8 -123 10 -140 2 -16 7 -61 10 -100 6 -66 9 -99 20 -197 6 -60 35 -288 40
-318 2 -14 7 -47 11 -75 3 -27 7 -57 9 -65 1 -8 6 -35 10 -60 3 -25 9 -58 11
-75 3 -16 14 -79 25 -140 24 -137 29 -162 49 -260 6 -27 12 -59 14 -70 22
-112 83 -370 116 -495 98 -373 90 -344 197 -680 122 -384 292 -823 478 -1235
123 -273 348 -704 523 -1005 175 -299 438 -704 594 -915 4 -5 55 -75 114 -154
58 -79 112 -151 119 -160 8 -9 74 -91 147 -182 139 -173 183 -226 308 -368
176 -201 279 -311 515 -546 228 -228 297 -295 449 -430 44 -38 84 -74 90 -80
6 -5 40 -35 76 -65 36 -30 74 -63 85 -73 11 -10 76 -64 145 -120 69 -56 130
-106 137 -112 107 -90 494 -374 668 -490 33 -22 64 -44 70 -48 63 -50 503
-322 715 -442 96 -54 191 -108 210 -120 66 -41 645 -324 825 -403 482 -212
1009 -402 1470 -531 61 -17 124 -35 140 -40 32 -10 110 -31 135 -36 13 -3 276
-66 335 -81 27 -6 204 -44 235 -50 14 -3 57 -11 95 -19 131 -26 350 -64 495
-85 80 -12 156 -23 170 -25 14 -2 52 -7 85 -11 33 -3 68 -8 77 -9 9 -2 48 -7
85 -10 37 -4 79 -8 93 -10 14 -2 57 -6 95 -10 39 -3 88 -8 110 -10 22 -3 83
-7 135 -10 52 -3 111 -8 130 -10 199 -25 1175 -25 1460 0 25 2 86 6 136 9 50
3 108 8 130 10 21 3 71 7 109 11 89 8 114 10 311 35 89 11 183 22 210 25 27 3
56 8 64 10 8 2 38 7 65 11 28 3 59 8 70 10 10 2 35 6 55 9 20 3 47 7 60 10 14
3 41 8 60 11 19 3 67 12 105 19 39 8 84 16 100 19 25 5 91 18 250 52 47 9 278
63 305 70 31 8 136 35 150 38 50 13 179 49 265 74 55 16 141 42 190 56 589
173 1335 481 1960 809 428 225 996 575 1327 818 47 35 96 71 108 79 177 123
590 456 829 669 279 248 654 618 855 842 22 24 60 67 85 94 25 28 62 69 82 90
54 61 291 346 324 390 17 22 33 42 36 45 4 3 22 25 41 50 19 25 70 92 114 150
181 236 418 581 579 840 42 69 86 137 96 152 10 15 19 29 19 31 0 4 91 161
120 207 10 16 86 154 157 285 46 85 313 621 313 629 0 2 16 38 35 80 97 210
268 638 352 881 43 125 124 369 129 390 1 6 14 48 29 95 59 193 189 683 209
790 2 14 18 88 34 165 17 77 33 157 36 179 4 21 8 41 10 45 2 3 7 30 10 60 4
29 8 56 10 60 2 3 7 29 10 56 4 28 9 59 11 70 9 40 48 297 59 390 3 22 8 60
11 85 3 25 7 61 10 80 2 19 7 60 10 90 12 119 17 166 20 200 2 19 7 78 10 130
4 52 9 115 11 140 14 178 19 386 19 790 -1 418 -4 562 -20 755 -2 33 -7 96
-10 140 -7 91 -14 174 -20 225 -2 19 -7 64 -10 100 -3 36 -8 76 -10 90 -2 14
-7 50 -10 80 -9 81 -55 402 -60 420 -2 8 -6 33 -9 55 -2 22 -7 51 -10 65 -3
14 -8 36 -10 50 -11 70 -19 113 -36 200 -11 52 -21 106 -24 120 -2 14 -12 59
-21 100 -9 41 -18 84 -21 95 -2 11 -6 29 -8 40 -2 11 -25 103 -51 205 -25 102
-50 201 -55 220 -56 232 -300 979 -370 1135 -5 11 -42 103 -83 205 -110 273
-174 415 -323 718 -143 289 -299 579 -404 752 -5 8 -56 92 -112 185 -194 321
-477 730 -736 1062 -95 122 -338 417 -377 459 -5 6 -35 40 -66 75 -62 70 -67
75 -213 233 -136 148 -425 437 -566 566 -62 58 -121 112 -130 120 -21 20 -188
167 -220 194 -14 11 -55 46 -90 76 -36 31 -101 85 -145 120 -44 36 -87 70 -95
77 -200 165 -724 539 -970 693 -30 19 -62 39 -71 45 -53 33 -392 236 -434 260
-27 15 -90 50 -140 78 -108 60 -557 288 -670 339 -44 20 -120 55 -168 77 -49
23 -90 41 -92 41 -3 0 -29 11 -58 25 -215 98 -694 277 -1007 377 -282 89 -770
224 -910 252 -14 2 -56 12 -95 21 -38 9 -81 19 -95 21 -14 2 -65 13 -115 24
-94 20 -192 39 -235 45 -25 4 -126 21 -165 29 -11 2 -54 9 -95 16 -41 6 -86
13 -100 16 -14 2 -63 9 -110 14 -47 6 -92 13 -100 15 -8 2 -45 7 -82 10 -37 3
-76 8 -86 10 -11 2 -53 6 -94 10 -40 3 -84 8 -98 10 -22 3 -69 7 -225 20 -22
1 -85 6 -140 9 -55 4 -136 9 -180 12 -85 6 -1002 14 -1007 9z"/>
</g>
</svg>
